<svg width="40" height="40" viewBox="0 0 40 40" fill="none" xmlns="http://www.w3.org/2000/svg">
<path d="M13.4339 17.8667C12.5301 18.4714 12 19.2068 12 20C12 20.7932 12.5301 21.5286 13.4339 22.1333M13.4339 17.8667C14.8796 18.8339 17.2814 19.4667 20 19.4667C22.7186 19.4667 25.1204 18.8339 26.5661 17.8667M13.4339 17.8667C12.5301 17.262 12 16.5265 12 15.7333C12 13.6715 15.5817 12 20 12C24.4183 12 28 13.6715 28 15.7333C28 16.5265 27.4699 17.262 26.5661 17.8667M26.5661 17.8667C27.4699 18.4714 28 19.2068 28 20C28 20.7932 27.4699 21.5286 26.5661 22.1333M26.5661 22.1333C27.4699 22.738 28 23.4735 28 24.2667C28 26.3285 24.4183 28 20 28C15.5817 28 12 26.3285 12 24.2667C12 23.4735 12.5301 22.738 13.4339 22.1333M26.5661 22.1333C25.1204 23.1005 22.7186 23.7333 20 23.7333C17.2814 23.7333 14.8796 23.1005 13.4339 22.1333" stroke="#2C2E2C" stroke-width="1.5"/>
</svg>
