<svg width="40" height="40" viewBox="0 0 40 40" fill="none" xmlns="http://www.w3.org/2000/svg">
<path d="M15.7246 13.6528H23.8516M26.3492 16.1808V24.3078M13.6508 15.9365V24.0635M15.7246 26.3447H23.8516M15.3016 13.6528C15.3016 14.5645 14.5625 15.3036 13.6508 15.3036C12.7391 15.3036 12 14.5645 12 13.6528C12 12.7411 12.7391 12.002 13.6508 12.002C14.5625 12.002 15.3016 12.7411 15.3016 13.6528ZM28 13.6528C28 14.5645 27.2609 15.3036 26.3492 15.3036C25.4375 15.3036 24.6984 14.5645 24.6984 13.6528C24.6984 12.7411 25.4375 12.002 26.3492 12.002C27.2609 12.002 28 12.7411 28 13.6528ZM28 26.3447C28 27.2564 27.2609 27.9955 26.3492 27.9955C25.4375 27.9955 24.6984 27.2564 24.6984 26.3447C24.6984 25.433 25.4375 24.6939 26.3492 24.6939C27.2609 24.6939 28 25.433 28 26.3447ZM15.3016 26.3472C15.3016 27.2589 14.5625 27.998 13.6508 27.998C12.7391 27.998 12 27.2589 12 26.3472C12 25.4355 12.7391 24.6964 13.6508 24.6964C14.5625 24.6964 15.3016 25.4355 15.3016 26.3472Z" stroke="#2C2E2C" stroke-width="1.5" stroke-linecap="round" stroke-linejoin="round"/>
</svg>
