<svg width="40" height="40" viewBox="0 0 40 40" fill="none" xmlns="http://www.w3.org/2000/svg">
    <path d="M17.672 17.6C17.8601 17.0653 18.2313 16.6145 18.7199 16.3273C19.2086 16.0401 19.7831 15.9351 20.3417 16.031C20.9003 16.1268 21.407 16.4172 21.772 16.8508C22.137 17.2844 22.3368 17.8332 22.336 18.4C22.336 20 19.936 20.8 19.936 20.8M20 24H20.008M28 20C28 24.4183 24.4183 28 20 28C15.5817 28 12 24.4183 12 20C12 15.5817 15.5817 12 20 12C24.4183 12 28 15.5817 28 20Z"
          stroke="#2C2E2C" stroke-width="1.5" stroke-linecap="round" stroke-linejoin="round"/>
</svg>
