<svg width="40" height="40" viewBox="0 0 40 40" fill="none" xmlns="http://www.w3.org/2000/svg">
    <path d="M7.00003 26V24.6041C7.00003 23.8422 7.39278 23.2165 8.17828 22.727C8.96379 22.2374 9.98769 21.9926 11.25 21.9926C11.4587 21.9926 11.6688 21.9993 11.8804 22.0125C12.092 22.0257 12.3051 22.0514 12.5196 22.0895C12.2993 22.4462 12.1359 22.8165 12.0293 23.2004C11.9228 23.5842 11.8696 23.978 11.8696 24.3816V26H7H7.00003ZM13.7826 26V24.4257C13.7826 23.8896 13.9312 23.3997 14.2283 22.9558C14.5254 22.5119 14.9537 22.1248 15.5131 21.7945C16.0725 21.4642 16.7333 21.2165 17.4957 21.0514C18.258 20.8862 19.0913 20.8037 19.9956 20.8037C20.9174 20.8037 21.7594 20.8862 22.5217 21.0514C23.284 21.2165 23.9449 21.4642 24.5043 21.7945C25.0638 22.1248 25.4891 22.5119 25.7804 22.9558C26.0717 23.3997 26.2174 23.8896 26.2174 24.4257V26H13.7826ZM28.1304 26V24.3849C28.1304 23.9543 28.0801 23.5484 27.9793 23.1674C27.8786 22.7864 27.7275 22.4271 27.5261 22.0895C27.7478 22.0514 27.9598 22.0257 28.162 22.0125C28.3641 21.9993 28.5638 21.9926 28.7609 21.9926C30.0232 21.9926 31.0453 22.2345 31.8272 22.7182C32.6091 23.2018 33 23.8305 33 24.6041V26H28.1304ZM15.5652 24.2826H24.4522V24.1615C24.3363 23.6991 23.8551 23.3101 23.0087 22.9945C22.1623 22.6789 21.1594 22.5211 20 22.5211C18.8406 22.5211 17.8377 22.6789 16.9913 22.9945C16.1449 23.3101 15.6695 23.6991 15.5652 24.1615V24.2826ZM11.2471 20.8807C10.7143 20.8807 10.2591 20.6888 9.88154 20.3051C9.50401 19.9213 9.31525 19.46 9.31525 18.9211C9.31525 18.375 9.50469 17.9138 9.88358 17.5372C10.2625 17.1607 10.7179 16.9724 11.25 16.9724C11.7891 16.9724 12.2464 17.1607 12.6217 17.5372C12.9971 17.9138 13.1848 18.3761 13.1848 18.9244C13.1848 19.4565 12.9991 19.9156 12.6277 20.3016C12.2563 20.6877 11.7961 20.8807 11.2471 20.8807ZM28.7609 20.8807C28.2333 20.8807 27.779 20.6877 27.3978 20.3016C27.0167 19.9156 26.8261 19.4565 26.8261 18.9244C26.8261 18.3761 27.0167 17.9138 27.3978 17.5372C27.779 17.1607 28.234 16.9724 28.763 16.9724C29.3079 16.9724 29.7663 17.1607 30.138 17.5372C30.5098 17.9138 30.6956 18.375 30.6956 18.9211C30.6956 19.46 30.5102 19.9213 30.1394 20.3051C29.7686 20.6888 29.309 20.8807 28.7609 20.8807ZM20.0038 19.9449C19.1897 19.9449 18.4964 19.6559 17.9239 19.078C17.3515 18.5 17.0652 17.7981 17.0652 16.9724C17.0652 16.1302 17.3506 15.4243 17.9212 14.8546C18.4919 14.2849 19.1848 14 20 14C20.8315 14 21.5285 14.2845 22.091 14.8535C22.6535 15.4224 22.9348 16.1275 22.9348 16.9686C22.9348 17.7932 22.6539 18.4954 22.0921 19.0752C21.5304 19.655 20.8343 19.9449 20.0038 19.9449ZM20.0054 18.2275C20.3511 18.2275 20.6431 18.105 20.8815 17.8598C21.1199 17.6147 21.2391 17.317 21.2391 16.967C21.2391 16.6169 21.1204 16.3211 20.8829 16.0796C20.6454 15.8381 20.3511 15.7174 20 15.7174C19.658 15.7174 19.3659 15.8377 19.1239 16.0782C18.8819 16.3188 18.7609 16.6169 18.7609 16.9724C18.7609 17.3189 18.8819 17.6147 19.1239 17.8598C19.3659 18.105 19.6598 18.2275 20.0054 18.2275Z"
          fill="#2C2E2C"/>
</svg>
