<svg width="24" height="24" viewBox="0 0 24 24" fill="none" xmlns="http://www.w3.org/2000/svg">
<path d="M4.3077 20.7499C3.80257 20.7499 3.375 20.5749 3.025 20.2249C2.675 19.8749 2.5 19.4473 2.5 18.9422V8.55765C2.5 8.05252 2.675 7.62495 3.025 7.27495C3.375 6.92495 3.80257 6.74995 4.3077 6.74995H8.5V5.05768C8.5 4.55256 8.675 4.125 9.025 3.775C9.375 3.425 9.80257 3.25 10.3077 3.25H13.6923C14.1974 3.25 14.625 3.425 14.975 3.775C15.325 4.125 15.5 4.55256 15.5 5.05768V6.74995H19.6923C20.1974 6.74995 20.625 6.92495 20.975 7.27495C21.325 7.62495 21.5 8.05252 21.5 8.55765V18.9422C21.5 19.4473 21.325 19.8749 20.975 20.2249C20.625 20.5749 20.1974 20.7499 19.6923 20.7499H4.3077ZM4.3077 19.2499H19.6923C19.7692 19.2499 19.8397 19.2179 19.9038 19.1538C19.9679 19.0897 20 19.0191 20 18.9422V8.55765C20 8.48072 19.9679 8.41019 19.9038 8.34608C19.8397 8.28198 19.7692 8.24993 19.6923 8.24993H4.3077C4.23077 8.24993 4.16024 8.28198 4.09613 8.34608C4.03202 8.41019 3.99998 8.48072 3.99998 8.55765V18.9422C3.99998 19.0191 4.03202 19.0897 4.09613 19.1538C4.16024 19.2179 4.23077 19.2499 4.3077 19.2499ZM9.99998 6.74995H14V5.05768C14 4.98074 13.9679 4.91023 13.9038 4.84613C13.8397 4.78201 13.7692 4.74995 13.6923 4.74995H10.3077C10.2308 4.74995 10.1602 4.78201 10.0961 4.84613C10.032 4.91023 9.99998 4.98074 9.99998 5.05768V6.74995Z" fill="#2F302E"/>
</svg>
