<svg width="40" height="40" viewBox="0 0 40 40" fill="none" xmlns="http://www.w3.org/2000/svg">
<path d="M21.434 22.7933C21.6605 22.7933 21.8506 22.7164 22.0042 22.5628C22.1578 22.4093 22.2346 22.2192 22.2346 21.9927C22.2346 21.7661 22.1578 21.576 22.0042 21.4224C21.8506 21.2688 21.6605 21.1921 21.434 21.1921C21.2074 21.1921 21.0174 21.2688 20.8638 21.4224C20.7102 21.576 20.6334 21.7661 20.6334 21.9927C20.6334 22.2192 20.7102 22.4093 20.8638 22.5628C21.0174 22.7164 21.2074 22.7933 21.434 22.7933ZM20.9056 20.1495H21.9624C21.9742 19.732 22.0163 19.4298 22.0887 19.243C22.161 19.0562 22.3449 18.8288 22.6402 18.5607C22.9284 18.3057 23.1997 18.0255 23.4541 17.7201C23.7086 17.4147 23.8358 17.0289 23.8358 16.5628C23.8358 15.9045 23.6118 15.3693 23.1639 14.9571C22.716 14.5449 22.1394 14.3388 21.434 14.3388C20.9073 14.3388 20.4305 14.4853 20.0036 14.7783C19.5766 15.0713 19.2646 15.4791 19.0677 16.0019L20.0213 16.4133C20.1471 16.0705 20.3324 15.8096 20.5773 15.6305C20.8222 15.4514 21.1078 15.3618 21.434 15.3618C21.8259 15.3618 22.1481 15.4754 22.4004 15.7025C22.6528 15.9297 22.779 16.22 22.779 16.5734C22.779 16.915 22.6551 17.2112 22.4072 17.4621C22.1593 17.713 21.8954 17.9647 21.6154 18.2174C21.3355 18.4724 21.1472 18.7345 21.0506 19.0037C20.9539 19.273 20.9056 19.6549 20.9056 20.1495ZM16.1678 25.3196C15.7513 25.3196 15.3993 25.1758 15.1118 24.8882C14.8242 24.6007 14.6804 24.2487 14.6804 23.8322V13.2999C14.6804 12.8834 14.8242 12.5314 15.1118 12.2439C15.3993 11.9563 15.7513 11.8125 16.1678 11.8125H26.7002C27.1166 11.8125 27.4686 11.9563 27.7562 12.2439C28.0437 12.5314 28.1875 12.8834 28.1875 13.2999V23.8322C28.1875 24.2487 28.0437 24.6007 27.7562 24.8882C27.4686 25.1758 27.1166 25.3196 26.7002 25.3196H16.1678ZM16.1678 24.1169H26.7002C26.7713 24.1169 26.8366 24.0873 26.8959 24.028C26.9552 23.9687 26.9848 23.9034 26.9848 23.8322V13.2999C26.9848 13.2287 26.9552 13.1634 26.8959 13.1041C26.8366 13.0448 26.7713 13.0152 26.7002 13.0152H16.1678C16.0966 13.0152 16.0314 13.0448 15.9721 13.1041C15.9127 13.1634 15.8831 13.2287 15.8831 13.2999V23.8322C15.8831 23.9034 15.9127 23.9687 15.9721 24.028C16.0314 24.0873 16.0966 24.1169 16.1678 24.1169ZM13.2998 28.1875C12.8834 28.1875 12.5314 28.0437 12.2438 27.7562C11.9563 27.4686 11.8125 27.1166 11.8125 26.7002V14.9651H13.0152V26.7002C13.0152 26.7713 13.0448 26.8366 13.1041 26.8959C13.1634 26.9552 13.2287 26.9849 13.2998 26.9849H25.0349V28.1875H13.2998Z" fill="#2C2E2C"/>
</svg>
