<svg width="40" height="40" viewBox="0 0 40 40" fill="none" xmlns="http://www.w3.org/2000/svg">
    <path d="M19.5245 11.4635C19.6741 11.0029 20.3259 11.0029 20.4755 11.4635L22.1329 16.5643C22.1998 16.7703 22.3918 16.9098 22.6084 16.9098H27.9717C28.4561 16.9098 28.6575 17.5296 28.2656 17.8143L23.9266 20.9668C23.7514 21.0941 23.678 21.3198 23.745 21.5258L25.4023 26.6266C25.552 27.0873 25.0248 27.4704 24.6329 27.1857L20.2939 24.0332C20.1186 23.9059 19.8814 23.9059 19.7061 24.0332L15.3671 27.1857C14.9752 27.4704 14.448 27.0873 14.5977 26.6266L16.255 21.5258C16.322 21.3198 16.2486 21.0941 16.0734 20.9668L11.7344 17.8143C11.3425 17.5296 11.5439 16.9098 12.0283 16.9098H17.3916C17.6082 16.9098 17.8002 16.7703 17.8671 16.5643L19.5245 11.4635Z"
          stroke="#2C2E2C" stroke-width="1.5"/>
</svg>
