<svg width="40" height="40" viewBox="0 0 40 40" fill="none" xmlns="http://www.w3.org/2000/svg">
<path d="M20 18.2885L16.3461 21.9423L17.4 22.9961L19.25 21.1461V25.5961H20.75V21.1461L22.6 22.9961L23.6538 21.9423L20 18.2885ZM13 15.9038V26.6923C13 26.782 13.0288 26.8557 13.0865 26.9134C13.1442 26.9711 13.218 27 13.3077 27H26.6923C26.782 27 26.8557 26.9711 26.9134 26.9134C26.9711 26.8557 27 26.782 27 26.6923V15.9038H13ZM13.3846 28.5C12.8859 28.5 12.4471 28.3105 12.0683 27.9317C11.6894 27.5528 11.5 27.114 11.5 26.6153V15.0058C11.5 14.7917 11.5343 14.5875 11.6029 14.3933C11.6715 14.1991 11.7744 14.0199 11.9115 13.8558L13.3154 12.1577C13.4795 11.9436 13.6846 11.7805 13.9308 11.6683C14.1769 11.5561 14.4372 11.5 14.7116 11.5H25.2692C25.5435 11.5 25.8054 11.5561 26.0547 11.6683C26.3041 11.7805 26.5108 11.9436 26.6749 12.1577L28.0884 13.875C28.2256 14.0391 28.3285 14.2199 28.3971 14.4173C28.4657 14.6148 28.5 14.8205 28.5 15.0346V26.6153C28.5 27.114 28.3105 27.5528 27.9317 27.9317C27.5528 28.3105 27.114 28.5 26.6153 28.5H13.3846ZM13.3904 14.4039H26.6L25.5096 13.1058C25.4775 13.0737 25.4407 13.0481 25.399 13.0288C25.3573 13.0096 25.314 13 25.2692 13H14.7212C14.6763 13 14.633 13.0096 14.5914 13.0288C14.5497 13.0481 14.5128 13.0737 14.4807 13.1058L13.3904 14.4039Z" fill="#53772F"/>
</svg>
