<svg width="40" height="40" viewBox="0 0 40 40" fill="none" xmlns="http://www.w3.org/2000/svg">
    <path fill-rule="evenodd" clip-rule="evenodd"
          d="M23.5 23.3567V24.1143C23.5 25.3924 22.4926 26.4286 21.25 26.4286H13.25C12.0074 26.4286 11 25.3924 11 24.1143V15.8857C11 14.6076 12.0074 13.5714 13.25 13.5714H21.25C22.4926 13.5714 23.5 14.6076 23.5 15.8857V17.4565L26.2207 15.4213C27.3774 14.556 29 15.4059 29 16.877V23.4102C29 24.7765 27.5782 25.6447 26.412 24.9904L23.5 23.3567ZM12.5 15.8857C12.5 15.4597 12.8358 15.1143 13.25 15.1143H21.25C21.6642 15.1143 22 15.4597 22 15.8857V24.1143C22 24.5403 21.6642 24.8857 21.25 24.8857H13.25C12.8358 24.8857 12.5 24.5403 12.5 24.1143V15.8857ZM23.5 21.4466C23.5 21.5407 23.55 21.6272 23.6303 21.6723L27.1303 23.6359C27.2969 23.7294 27.5 23.6054 27.5 23.4102V16.877C27.5 16.6669 27.2682 16.5455 27.103 16.6691L23.603 19.2873C23.5383 19.3356 23.5 19.4129 23.5 19.4952V21.4466Z"
          fill="#2C2E2C"/>
</svg>
