<svg width="435" height="60" viewBox="0 0 435 60" fill="none" xmlns="http://www.w3.org/2000/svg">
<rect x="1" y="1" width="433" height="58" rx="11" fill="white"/>
<rect x="1" y="1" width="433" height="58" rx="11" stroke="#D1D3CE" stroke-width="2"/>
<path d="M19.76 36C19.6427 36 19.552 35.968 19.488 35.904C19.424 35.8293 19.392 35.7387 19.392 35.632V25.184C19.392 25.0667 19.424 24.976 19.488 24.912C19.552 24.8373 19.6427 24.8 19.76 24.8H27.648C27.7653 24.8 27.856 24.8373 27.92 24.912C27.9947 24.976 28.032 25.0667 28.032 25.184V35.632C28.032 35.7387 27.9947 35.8293 27.92 35.904C27.856 35.968 27.7653 36 27.648 36H26.832C26.7253 36 26.6347 35.968 26.56 35.904C26.496 35.8293 26.464 35.7387 26.464 35.632V26.24H20.96V35.632C20.96 35.7387 20.9227 35.8293 20.848 35.904C20.784 35.968 20.6933 36 20.576 36H19.76ZM30.9743 39.04C30.8676 39.04 30.7769 39.0027 30.7023 38.928C30.6383 38.864 30.6063 38.7787 30.6063 38.672V28.048C30.6063 27.9413 30.6383 27.856 30.7023 27.792C30.7769 27.7173 30.8676 27.68 30.9743 27.68H31.7103C31.8169 27.68 31.9023 27.7173 31.9663 27.792C32.0409 27.856 32.0783 27.9413 32.0783 28.048V28.752C32.3343 28.4 32.6756 28.1067 33.1023 27.872C33.5289 27.6373 34.0623 27.52 34.7023 27.52C35.2996 27.52 35.8063 27.6213 36.2223 27.824C36.6489 28.0267 36.9956 28.304 37.2623 28.656C37.5396 29.008 37.7476 29.408 37.8863 29.856C38.0249 30.304 38.0996 30.784 38.1103 31.296C38.1209 31.4667 38.1263 31.648 38.1263 31.84C38.1263 32.032 38.1209 32.2133 38.1103 32.384C38.0996 32.8853 38.0249 33.3653 37.8863 33.824C37.7476 34.272 37.5396 34.672 37.2623 35.024C36.9956 35.3653 36.6489 35.6427 36.2223 35.856C35.8063 36.0587 35.2996 36.16 34.7023 36.16C34.0836 36.16 33.5609 36.048 33.1343 35.824C32.7183 35.5893 32.3769 35.3013 32.1103 34.96V38.672C32.1103 38.7787 32.0783 38.864 32.0143 38.928C31.9503 39.0027 31.8596 39.04 31.7423 39.04H30.9743ZM34.3663 34.864C34.9209 34.864 35.3529 34.7467 35.6623 34.512C35.9823 34.2667 36.2116 33.952 36.3503 33.568C36.4889 33.1733 36.5689 32.752 36.5903 32.304C36.6009 31.9947 36.6009 31.6853 36.5903 31.376C36.5689 30.928 36.4889 30.512 36.3503 30.128C36.2116 29.7333 35.9823 29.4187 35.6623 29.184C35.3529 28.9387 34.9209 28.816 34.3663 28.816C33.8436 28.816 33.4169 28.9387 33.0863 29.184C32.7663 29.4293 32.5263 29.744 32.3663 30.128C32.2169 30.5013 32.1316 30.8853 32.1103 31.28C32.0996 31.4507 32.0943 31.6533 32.0943 31.888C32.0943 32.1227 32.0996 32.3307 32.1103 32.512C32.1209 32.8853 32.2063 33.2533 32.3663 33.616C32.5369 33.9787 32.7876 34.2773 33.1183 34.512C33.4489 34.7467 33.8649 34.864 34.3663 34.864ZM40.4735 36C40.3775 36 40.2922 35.968 40.2175 35.904C40.1535 35.8293 40.1215 35.7493 40.1215 35.664V28.048C40.1215 27.9413 40.1535 27.856 40.2175 27.792C40.2922 27.7173 40.3828 27.68 40.4895 27.68H41.2575C41.3642 27.68 41.4495 27.7173 41.5135 27.792C41.5775 27.856 41.6095 27.9413 41.6095 28.048V34.832L41.1935 34.4L46.0415 27.92C46.0948 27.856 46.1535 27.8027 46.2175 27.76C46.2815 27.7067 46.3615 27.68 46.4575 27.68H47.1935C47.2788 27.68 47.3535 27.712 47.4175 27.776C47.4922 27.84 47.5295 27.9147 47.5295 28V35.632C47.5295 35.7387 47.4922 35.8293 47.4175 35.904C47.3535 35.968 47.2682 36 47.1615 36H46.4095C46.2922 36 46.2015 35.968 46.1375 35.904C46.0735 35.8293 46.0415 35.7387 46.0415 35.632V29.248L46.4895 29.232L41.6095 35.76C41.5668 35.8133 41.5135 35.8667 41.4495 35.92C41.3855 35.9733 41.3002 36 41.1935 36H40.4735ZM52.7675 36.16C52.1382 36.16 51.6048 36.0853 51.1675 35.936C50.7408 35.776 50.3942 35.5787 50.1275 35.344C49.8715 35.0987 49.6848 34.848 49.5675 34.592C49.4502 34.3253 49.3862 34.08 49.3755 33.856C49.3755 33.76 49.4075 33.6853 49.4715 33.632C49.5355 33.568 49.6102 33.536 49.6955 33.536H50.4475C50.5435 33.536 50.6235 33.5627 50.6875 33.616C50.7515 33.6587 50.7995 33.7387 50.8315 33.856C50.9595 34.2613 51.2048 34.544 51.5675 34.704C51.9302 34.864 52.3728 34.944 52.8955 34.944C53.2368 34.944 53.5515 34.9013 53.8395 34.816C54.1275 34.72 54.3515 34.5707 54.5115 34.368C54.6822 34.1653 54.7675 33.9147 54.7675 33.616C54.7675 33.1787 54.6395 32.848 54.3835 32.624C54.1382 32.4 53.7542 32.288 53.2315 32.288H52.3515C52.2448 32.288 52.1595 32.256 52.0955 32.192C52.0315 32.128 51.9995 32.0427 51.9995 31.936V31.504C51.9995 31.408 52.0315 31.328 52.0955 31.264C52.1595 31.1893 52.2448 31.152 52.3515 31.152H53.1355C53.5728 31.152 53.9088 31.0667 54.1435 30.896C54.3782 30.7253 54.4955 30.4533 54.4955 30.08C54.4955 29.856 54.4422 29.6427 54.3355 29.44C54.2288 29.2373 54.0475 29.072 53.7915 28.944C53.5462 28.8053 53.2048 28.736 52.7675 28.736C52.1488 28.736 51.7115 28.8427 51.4555 29.056C51.2102 29.2587 51.0342 29.5627 50.9275 29.968C50.8848 30.0853 50.8315 30.1653 50.7675 30.208C50.7142 30.2507 50.6342 30.272 50.5275 30.272H49.8075C49.7115 30.272 49.6315 30.2453 49.5675 30.192C49.5035 30.1387 49.4715 30.064 49.4715 29.968C49.4822 29.648 49.5515 29.344 49.6795 29.056C49.8182 28.768 50.0208 28.5067 50.2875 28.272C50.5648 28.0373 50.9062 27.856 51.3115 27.728C51.7275 27.5893 52.2128 27.52 52.7675 27.52C53.5675 27.52 54.1968 27.6427 54.6555 27.888C55.1248 28.1333 55.4555 28.4373 55.6475 28.8C55.8502 29.152 55.9515 29.504 55.9515 29.856C55.9515 30.272 55.8822 30.6187 55.7435 30.896C55.6155 31.1733 55.3595 31.408 54.9755 31.6C55.4555 31.7813 55.7862 32.0533 55.9675 32.416C56.1488 32.7787 56.2448 33.2 56.2555 33.68C56.2662 34.2347 56.1168 34.6933 55.8075 35.056C55.5088 35.4187 55.0982 35.696 54.5755 35.888C54.0528 36.0693 53.4502 36.16 52.7675 36.16ZM58.427 36C58.3203 36 58.2297 35.968 58.155 35.904C58.091 35.8293 58.059 35.7387 58.059 35.632V28.048C58.059 27.9413 58.091 27.856 58.155 27.792C58.2297 27.7173 58.3203 27.68 58.427 27.68H59.195C59.3017 27.68 59.387 27.7173 59.451 27.792C59.5257 27.856 59.563 27.9413 59.563 28.048V30.4H61.227C62.315 30.4 63.1097 30.656 63.611 31.168C64.1123 31.68 64.363 32.3733 64.363 33.248C64.363 34.1867 64.0857 34.88 63.531 35.328C62.9763 35.776 62.1443 36 61.035 36H58.427ZM59.547 34.8H61.083C61.7337 34.8 62.2083 34.688 62.507 34.464C62.8057 34.2293 62.955 33.824 62.955 33.248C62.955 32.6933 62.811 32.2827 62.523 32.016C62.235 31.7387 61.755 31.6 61.083 31.6H59.547V34.8ZM65.867 36C65.7603 36 65.6697 35.968 65.595 35.904C65.531 35.8293 65.499 35.7387 65.499 35.632V28.048C65.499 27.9413 65.531 27.856 65.595 27.792C65.6697 27.7173 65.7603 27.68 65.867 27.68H66.635C66.7417 27.68 66.827 27.7173 66.891 27.792C66.9657 27.856 67.003 27.9413 67.003 28.048V35.632C67.003 35.7387 66.9657 35.8293 66.891 35.904C66.827 35.968 66.7417 36 66.635 36H65.867ZM69.7551 36C69.6485 36 69.5578 35.968 69.4831 35.904C69.4191 35.8293 69.3871 35.7387 69.3871 35.632V28.048C69.3871 27.9413 69.4191 27.856 69.4831 27.792C69.5578 27.7173 69.6485 27.68 69.7551 27.68H73.0831C74.0858 27.68 74.8378 27.8827 75.3391 28.288C75.8511 28.6933 76.1071 29.2373 76.1071 29.92C76.1071 30.4 76.0165 30.7627 75.8351 31.008C75.6538 31.2533 75.3978 31.4613 75.0671 31.632C75.4725 31.8027 75.7765 32.08 75.9791 32.464C76.1925 32.8373 76.2991 33.2267 76.2991 33.632C76.2991 34.4 76.0271 34.9867 75.4831 35.392C74.9391 35.7973 74.1818 36 73.2111 36H69.7551ZM70.8591 34.832H73.0831C73.5951 34.832 74.0058 34.736 74.3151 34.544C74.6351 34.3413 74.7951 34.0373 74.7951 33.632C74.7951 33.2053 74.6511 32.896 74.3631 32.704C74.0751 32.5013 73.6485 32.4 73.0831 32.4H70.8591V34.832ZM70.8591 31.216H72.9871C73.4991 31.216 73.9045 31.104 74.2031 30.88C74.5125 30.656 74.6671 30.3413 74.6671 29.936C74.6671 29.52 74.5125 29.2373 74.2031 29.088C73.9045 28.928 73.4991 28.848 72.9871 28.848H70.8591V31.216ZM82.6458 36C82.5391 36 82.4484 35.968 82.3738 35.904C82.3098 35.8293 82.2778 35.7387 82.2778 35.632V28.048C82.2778 27.9413 82.3098 27.856 82.3738 27.792C82.4484 27.7173 82.5391 27.68 82.6458 27.68H83.3978C83.5044 27.68 83.5898 27.7173 83.6538 27.792C83.7284 27.856 83.7658 27.9413 83.7658 28.048V31.12H85.2218L87.3818 27.92C87.4351 27.8453 87.4938 27.7867 87.5578 27.744C87.6218 27.7013 87.7071 27.68 87.8138 27.68H88.6458C88.7418 27.68 88.8218 27.7013 88.8858 27.744C88.9498 27.7867 88.9818 27.8507 88.9818 27.936C88.9818 27.9573 88.9711 27.9893 88.9498 28.032C88.9391 28.064 88.9231 28.096 88.9018 28.128L86.5018 31.664L89.2218 35.536C89.2751 35.6 89.3018 35.6693 89.3018 35.744C89.3018 35.8293 89.2698 35.8933 89.2058 35.936C89.1524 35.9787 89.0778 36 88.9818 36H88.0058C87.9098 36 87.8298 35.9787 87.7658 35.936C87.7018 35.8933 87.6431 35.8347 87.5898 35.76L85.2378 32.416H83.7658V35.632C83.7658 35.7387 83.7284 35.8293 83.6538 35.904C83.5898 35.968 83.5044 36 83.3978 36H82.6458ZM94.2978 37.76C94.1911 37.76 94.1004 37.7227 94.0258 37.648C93.9618 37.584 93.9298 37.4987 93.9298 37.392V35.088C93.9298 34.9813 93.9618 34.896 94.0258 34.832C94.1004 34.7573 94.1911 34.72 94.2978 34.72H94.3778C94.6658 34.7093 94.9111 34.5493 95.1138 34.24C95.3164 33.92 95.4711 33.424 95.5778 32.752C95.6844 32.0693 95.7378 31.184 95.7378 30.096V28.048C95.7378 27.9413 95.7698 27.856 95.8338 27.792C95.9084 27.7173 95.9991 27.68 96.1058 27.68H101.21C101.316 27.68 101.402 27.7173 101.466 27.792C101.54 27.856 101.578 27.9413 101.578 28.048V34.688H102.33C102.447 34.688 102.538 34.7253 102.602 34.8C102.666 34.864 102.698 34.9493 102.698 35.056V37.392C102.698 37.4987 102.666 37.584 102.602 37.648C102.538 37.7227 102.447 37.76 102.33 37.76H101.578C101.471 37.76 101.38 37.7227 101.306 37.648C101.242 37.584 101.21 37.4987 101.21 37.392V36H95.4178V37.392C95.4178 37.4987 95.3804 37.584 95.3058 37.648C95.2418 37.7227 95.1564 37.76 95.0498 37.76H94.2978ZM96.2818 34.72L100.09 34.688V28.96H97.1938V30.272C97.1938 31.4027 97.1138 32.3307 96.9538 33.056C96.7938 33.7707 96.5698 34.3253 96.2818 34.72ZM107.684 36.16C106.585 36.16 105.71 35.824 105.06 35.152C104.409 34.4693 104.052 33.5413 103.988 32.368C103.977 32.2293 103.972 32.0533 103.972 31.84C103.972 31.616 103.977 31.4347 103.988 31.296C104.03 30.5387 104.206 29.8773 104.516 29.312C104.825 28.736 105.246 28.2933 105.78 27.984C106.324 27.6747 106.958 27.52 107.684 27.52C108.494 27.52 109.172 27.6907 109.716 28.032C110.27 28.3733 110.692 28.8587 110.98 29.488C111.268 30.1173 111.411 30.8533 111.411 31.696V31.968C111.411 32.0853 111.374 32.176 111.3 32.24C111.236 32.304 111.15 32.336 111.044 32.336H105.508C105.508 32.3467 105.508 32.368 105.508 32.4C105.508 32.432 105.508 32.4587 105.508 32.48C105.529 32.9173 105.625 33.328 105.796 33.712C105.966 34.0853 106.212 34.3893 106.532 34.624C106.852 34.8587 107.236 34.976 107.684 34.976C108.068 34.976 108.388 34.9173 108.644 34.8C108.9 34.6827 109.108 34.5547 109.268 34.416C109.428 34.2667 109.534 34.1547 109.588 34.08C109.684 33.9413 109.758 33.8613 109.812 33.84C109.865 33.808 109.95 33.792 110.068 33.792H110.836C110.942 33.792 111.028 33.824 111.092 33.888C111.166 33.9413 111.198 34.0213 111.188 34.128C111.177 34.288 111.092 34.4853 110.932 34.72C110.772 34.944 110.542 35.168 110.244 35.392C109.945 35.616 109.582 35.8027 109.156 35.952C108.729 36.0907 108.238 36.16 107.684 36.16ZM105.508 31.232H109.892V31.184C109.892 30.704 109.801 30.2773 109.62 29.904C109.449 29.5307 109.198 29.2373 108.868 29.024C108.537 28.8 108.142 28.688 107.684 28.688C107.225 28.688 106.83 28.8 106.5 29.024C106.18 29.2373 105.934 29.5307 105.764 29.904C105.593 30.2773 105.508 30.704 105.508 31.184V31.232ZM113.677 36C113.581 36 113.495 35.968 113.421 35.904C113.357 35.8293 113.325 35.7493 113.325 35.664V28.048C113.325 27.9413 113.357 27.856 113.421 27.792C113.495 27.7173 113.586 27.68 113.693 27.68H114.461C114.567 27.68 114.653 27.7173 114.717 27.792C114.781 27.856 114.813 27.9413 114.813 28.048V34.832L114.397 34.4L119.245 27.92C119.298 27.856 119.357 27.8027 119.421 27.76C119.485 27.7067 119.565 27.68 119.661 27.68H120.397C120.482 27.68 120.557 27.712 120.621 27.776C120.695 27.84 120.733 27.9147 120.733 28V35.632C120.733 35.7387 120.695 35.8293 120.621 35.904C120.557 35.968 120.471 36 120.365 36H119.613C119.495 36 119.405 35.968 119.341 35.904C119.277 35.8293 119.245 35.7387 119.245 35.632V29.248L119.693 29.232L114.813 35.76C114.77 35.8133 114.717 35.8667 114.653 35.92C114.589 35.9733 114.503 36 114.397 36H113.677ZM117.069 26.576C116.45 26.576 115.965 26.48 115.613 26.288C115.261 26.096 115.015 25.8507 114.877 25.552C114.738 25.2427 114.669 24.9227 114.669 24.592C114.669 24.5067 114.69 24.4373 114.733 24.384C114.786 24.32 114.866 24.288 114.973 24.288H115.517C115.613 24.288 115.687 24.32 115.741 24.384C115.794 24.4373 115.821 24.5067 115.821 24.592C115.821 24.8373 115.901 25.0667 116.061 25.28C116.231 25.4827 116.567 25.584 117.069 25.584C117.581 25.584 117.917 25.4827 118.077 25.28C118.237 25.0667 118.317 24.8373 118.317 24.592C118.317 24.5067 118.343 24.4373 118.397 24.384C118.45 24.32 118.525 24.288 118.621 24.288H119.181C119.277 24.288 119.351 24.32 119.405 24.384C119.458 24.4373 119.485 24.5067 119.485 24.592C119.485 24.9227 119.41 25.2427 119.261 25.552C119.122 25.8507 118.877 26.096 118.525 26.288C118.173 26.48 117.687 26.576 117.069 26.576ZM126.435 36.16C125.677 36.16 125.021 36.016 124.467 35.728C123.923 35.4293 123.501 35.008 123.203 34.464C122.904 33.9093 122.744 33.248 122.723 32.48C122.712 32.32 122.707 32.1067 122.707 31.84C122.707 31.5733 122.712 31.36 122.723 31.2C122.744 30.432 122.904 29.776 123.203 29.232C123.501 28.6773 123.923 28.256 124.467 27.968C125.021 27.6693 125.677 27.52 126.435 27.52C127.053 27.52 127.581 27.6053 128.019 27.776C128.467 27.9467 128.835 28.1653 129.123 28.432C129.411 28.6987 129.624 28.9867 129.763 29.296C129.912 29.6053 129.992 29.8987 130.003 30.176C130.013 30.2827 129.981 30.368 129.907 30.432C129.832 30.496 129.741 30.528 129.635 30.528H128.867C128.76 30.528 128.68 30.5067 128.627 30.464C128.573 30.4107 128.52 30.3253 128.467 30.208C128.275 29.6853 128.013 29.3173 127.683 29.104C127.352 28.8907 126.941 28.784 126.451 28.784C125.811 28.784 125.288 28.9813 124.883 29.376C124.488 29.7707 124.275 30.4053 124.243 31.28C124.232 31.664 124.232 32.0373 124.243 32.4C124.275 33.2853 124.488 33.9253 124.883 34.32C125.288 34.704 125.811 34.896 126.451 34.896C126.941 34.896 127.352 34.7893 127.683 34.576C128.013 34.3627 128.275 33.9947 128.467 33.472C128.52 33.3547 128.573 33.2747 128.627 33.232C128.68 33.1787 128.76 33.152 128.867 33.152H129.635C129.741 33.152 129.832 33.184 129.907 33.248C129.981 33.312 130.013 33.3973 130.003 33.504C129.992 33.728 129.944 33.9573 129.859 34.192C129.773 34.4267 129.635 34.6667 129.443 34.912C129.261 35.1467 129.032 35.36 128.755 35.552C128.477 35.7333 128.141 35.8827 127.747 36C127.363 36.1067 126.925 36.16 126.435 36.16ZM134.447 36C134.34 36 134.249 35.968 134.175 35.904C134.111 35.8293 134.079 35.7387 134.079 35.632V28.96H131.295C131.188 28.96 131.097 28.928 131.023 28.864C130.959 28.7893 130.927 28.6987 130.927 28.592V28.048C130.927 27.9413 130.959 27.856 131.023 27.792C131.097 27.7173 131.188 27.68 131.295 27.68H138.335C138.441 27.68 138.527 27.7173 138.591 27.792C138.665 27.856 138.703 27.9413 138.703 28.048V28.592C138.703 28.6987 138.665 28.7893 138.591 28.864C138.527 28.928 138.441 28.96 138.335 28.96H135.551V35.632C135.551 35.7387 135.519 35.8293 135.455 35.904C135.391 35.968 135.3 36 135.183 36H134.447ZM140.458 36C140.352 36 140.261 35.968 140.186 35.904C140.122 35.8293 140.09 35.7387 140.09 35.632V28.048C140.09 27.9413 140.122 27.856 140.186 27.792C140.261 27.7173 140.352 27.68 140.458 27.68H143.786C144.789 27.68 145.541 27.8827 146.042 28.288C146.554 28.6933 146.81 29.2373 146.81 29.92C146.81 30.4 146.72 30.7627 146.538 31.008C146.357 31.2533 146.101 31.4613 145.77 31.632C146.176 31.8027 146.48 32.08 146.682 32.464C146.896 32.8373 147.002 33.2267 147.002 33.632C147.002 34.4 146.73 34.9867 146.186 35.392C145.642 35.7973 144.885 36 143.914 36H140.458ZM141.562 34.832H143.786C144.298 34.832 144.709 34.736 145.018 34.544C145.338 34.3413 145.498 34.0373 145.498 33.632C145.498 33.2053 145.354 32.896 145.066 32.704C144.778 32.5013 144.352 32.4 143.786 32.4H141.562V34.832ZM141.562 31.216H143.69C144.202 31.216 144.608 31.104 144.906 30.88C145.216 30.656 145.37 30.3413 145.37 29.936C145.37 29.52 145.216 29.2373 144.906 29.088C144.608 28.928 144.202 28.848 143.69 28.848H141.562V31.216ZM149.411 36C149.315 36 149.23 35.968 149.155 35.904C149.091 35.8293 149.059 35.7493 149.059 35.664V28.048C149.059 27.9413 149.091 27.856 149.155 27.792C149.23 27.7173 149.32 27.68 149.427 27.68H150.195C150.302 27.68 150.387 27.7173 150.451 27.792C150.515 27.856 150.547 27.9413 150.547 28.048V34.832L150.131 34.4L154.979 27.92C155.032 27.856 155.091 27.8027 155.155 27.76C155.219 27.7067 155.299 27.68 155.395 27.68H156.131C156.216 27.68 156.291 27.712 156.355 27.776C156.43 27.84 156.467 27.9147 156.467 28V35.632C156.467 35.7387 156.43 35.8293 156.355 35.904C156.291 35.968 156.206 36 156.099 36H155.347C155.23 36 155.139 35.968 155.075 35.904C155.011 35.8293 154.979 35.7387 154.979 35.632V29.248L155.427 29.232L150.547 35.76C150.504 35.8133 150.451 35.8667 150.387 35.92C150.323 35.9733 150.238 36 150.131 36H149.411ZM162.617 32.4H160.297V35.632C160.297 35.7387 160.265 35.8293 160.201 35.904C160.137 35.968 160.052 36 159.945 36H159.177C159.07 36 158.98 35.968 158.905 35.904C158.841 35.8293 158.809 35.7387 158.809 35.632V28.048C158.809 27.9413 158.841 27.856 158.905 27.792C158.98 27.7173 159.07 27.68 159.177 27.68H159.945C160.052 27.68 160.137 27.7173 160.201 27.792C160.265 27.856 160.297 27.9413 160.297 28.048V31.12H162.617V32.4ZM165.769 36.16C164.958 36.16 164.281 36.0053 163.737 35.696C163.193 35.3867 162.777 34.96 162.489 34.416C162.201 33.8613 162.041 33.232 162.009 32.528C161.998 32.3467 161.993 32.1173 161.993 31.84C161.993 31.552 161.998 31.3227 162.009 31.152C162.041 30.4373 162.201 29.808 162.489 29.264C162.777 28.72 163.193 28.2933 163.737 27.984C164.292 27.6747 164.969 27.52 165.769 27.52C166.569 27.52 167.241 27.6747 167.785 27.984C168.329 28.2933 168.745 28.72 169.033 29.264C169.332 29.808 169.492 30.4373 169.513 31.152C169.534 31.3227 169.545 31.552 169.545 31.84C169.545 32.1173 169.534 32.3467 169.513 32.528C169.492 33.232 169.337 33.8613 169.049 34.416C168.761 34.96 168.34 35.3867 167.785 35.696C167.241 36.0053 166.569 36.16 165.769 36.16ZM165.769 34.928C166.43 34.928 166.958 34.72 167.353 34.304C167.748 33.8773 167.961 33.2587 167.993 32.448C168.004 32.288 168.009 32.0853 168.009 31.84C168.009 31.5947 168.004 31.392 167.993 31.232C167.961 30.4213 167.748 29.808 167.353 29.392C166.958 28.9653 166.43 28.752 165.769 28.752C165.108 28.752 164.574 28.9653 164.169 29.392C163.774 29.808 163.561 30.4213 163.529 31.232C163.518 31.392 163.513 31.5947 163.513 31.84C163.513 32.0853 163.518 32.288 163.529 32.448C163.561 33.2587 163.774 33.8773 164.169 34.304C164.574 34.72 165.108 34.928 165.769 34.928Z" fill="#7D7E7C"/>
<path d="M400.773 31.4461L399.65 30.3231C399.8 29.4948 399.564 28.7503 398.941 28.0894C398.319 27.4285 397.555 27.1731 396.65 27.3231L395.527 26.2C395.753 26.0987 395.984 26.0228 396.221 25.9721C396.458 25.9215 396.718 25.8962 397 25.8962C398.135 25.8962 399.098 26.292 399.889 27.0837C400.681 27.8753 401.077 28.8385 401.077 29.9731C401.077 30.2551 401.052 30.5179 401.001 30.7615C400.95 31.0051 400.874 31.2333 400.773 31.4461ZM403.954 34.5577L402.85 33.5231C403.483 33.0397 404.046 32.5106 404.537 31.9356C405.029 31.3606 405.45 30.7064 405.8 29.9731C404.967 28.2897 403.771 26.9522 402.212 25.9606C400.654 24.9689 398.917 24.4731 397 24.4731C396.517 24.4731 396.042 24.5064 395.575 24.5731C395.108 24.6397 394.65 24.7397 394.2 24.8731L393.035 23.7077C393.667 23.4564 394.312 23.2712 394.971 23.1519C395.63 23.0327 396.306 22.9731 397 22.9731C399.344 22.9731 401.457 23.6192 403.34 24.9115C405.224 26.2039 406.597 27.891 407.461 29.9731C407.091 30.8666 406.612 31.7006 406.026 32.475C405.439 33.2493 404.749 33.9435 403.954 34.5577ZM404.761 40.3422L400.715 36.3269C400.203 36.5166 399.634 36.6717 399.011 36.7923C398.387 36.9128 397.717 36.973 397 36.973C394.65 36.973 392.537 36.3269 390.66 35.0346C388.783 33.7423 387.409 32.0551 386.538 29.9731C386.908 29.0897 387.385 28.2657 387.969 27.5009C388.554 26.7362 389.197 26.0731 389.9 25.5115L387.131 22.7115L388.185 21.6577L405.815 39.2884L404.761 40.3422ZM390.954 26.5653C390.426 26.9859 389.912 27.4913 389.412 28.0817C388.913 28.6721 388.509 29.3025 388.2 29.9731C389.033 31.6564 390.229 32.9939 391.787 33.9856C393.346 34.9772 395.083 35.4731 397 35.4731C397.455 35.4731 397.908 35.4346 398.36 35.3577C398.811 35.2807 399.194 35.2013 399.508 35.1192L398.242 33.823C398.072 33.8923 397.874 33.9474 397.65 33.9884C397.426 34.0294 397.209 34.05 397 34.05C395.865 34.05 394.902 33.6541 394.111 32.8625C393.319 32.0708 392.923 31.1077 392.923 29.9731C392.923 29.7705 392.944 29.5586 392.985 29.3375C393.026 29.1163 393.081 28.9141 393.15 28.7307L390.954 26.5653Z" fill="#53772F"/>
</svg>
